<svg xmlns="http://www.w3.org/2000/svg" xmlns:xlink="http://www.w3.org/1999/xlink" width="58px" height="32px" viewBox="0 0 58 32" version="1.1">
    <title>blend-mobile-logo</title>
    <desc>Created with Sketch.</desc>
    <g id="Page-1" stroke="none" stroke-width="1" fill="none" fill-rule="evenodd">
        <g id="blend-mobile-logo" fill="#172d35">
            <path d="M2.73898,11.6875 L2.94532,20.7938 L2.94532,20.8092 C2.94532,21.5929 3.35802,22.4974 4.44917,23.4787 C5.53986,24.4595 7.19515,25.4057 9.35715,26.2284 C13.6716,27.8702 19.7242,28.9149 26.4772,28.9149 C33.2303,28.9149 39.2829,27.8713 43.5973,26.2301 C45.7593,25.4076 47.4145,24.4616 48.5051,23.4807 C49.596,22.4995 50.009,21.5943 50.009,20.8092 C50.009,20.0241 49.596,19.119 48.5051,18.1378 C48.3983,18.0417 48.2861,17.946 48.1686,17.8507 C47.059,18.5318 45.7762,19.142 44.3658,19.6785 C39.6675,21.4658 33.2695,22.5425 26.2708,22.5425 C21.5715,22.5425 18.1373,22.3195 14.7872,21.565 C11.4537,20.8142 8.2709,19.5523 4.05714,17.5564 C3.8288,17.4601 3.41837,17.2156 3.26282,16.6632 C3.0966,16.073 3.37501,15.633 3.44312,15.5313 C3.54087,15.3853 3.64429,15.2928 3.6833,15.2589 C3.73362,15.2151 3.77737,15.1835 3.8034,15.1654 C3.88736,15.107 3.96437,15.0679 3.98364,15.0582 L3.98547,15.0572 C4.04425,15.0273 4.10767,14.999 4.15713,14.9775 C4.26576,14.9302 4.41575,14.8688 4.59742,14.7971 C4.96451,14.6523 5.49674,14.4517 6.16237,14.2143 C7.49427,13.7393 9.37643,13.1116 11.5616,12.4853 C15.9043,11.2405 21.5558,9.9679 26.4772,9.9679 C33.4759,9.9679 39.8739,11.0446 44.5722,12.8319 C45.8823,13.3303 47.0823,13.8922 48.1356,14.5154 C48.1913,14.4679 48.2457,14.4203 48.2987,14.3726 C49.3896,13.3914 49.8026,12.4863 49.8026,11.7012 C49.8026,10.9161 49.3896,10.0109 48.2987,9.0297 C47.2081,8.04877 45.5529,7.10276 43.3909,6.28033 C39.0765,4.63909 33.0239,3.59553 26.2708,3.59553 C19.5177,3.59553 13.4651,4.63909 9.15062,6.28033 C6.98865,7.10276 5.33347,8.04877 4.24287,9.0297 C3.15828,10.0053 2.74374,10.9056 2.73898,11.6875 Z M50.3969,16.1583 C51.6809,14.9184 52.5416,13.4169 52.5416,11.7012 C52.5416,9.8698 51.5609,8.28249 50.1315,6.99685 C48.7019,5.71092 46.7102,4.61563 44.3658,3.72381 C39.6675,1.93655 33.2695,0.85986 26.2708,0.85986 C19.2721,0.85986 12.874,1.93655 8.17577,3.72381 C5.83139,4.61563 3.83971,5.71092 2.41003,6.99685 C0.980661,8.28249 0,9.8698 0,11.7012 L0,11.7166 L0.206416,20.8259 C0.212352,22.6495 1.19172,24.2304 2.61651,25.5117 C4.0461,26.7973 6.03768,27.8927 8.38202,28.7848 C13.0802,30.5727 19.4783,31.6505 26.4772,31.6505 C33.4759,31.6505 39.8739,30.5738 44.5722,28.7866 C46.9166,27.8948 48.9083,26.7995 50.3379,25.5136 C51.7673,24.2279 52.748,22.6406 52.748,20.8092 C52.748,19.0031 51.7942,17.4344 50.3969,16.1583 Z M45.4974,16.2043 C44.9161,15.9218 44.2821,15.6489 43.5973,15.3884 C39.2829,13.7472 33.2303,12.7036 26.4772,12.7036 C21.945,12.7036 16.5887,13.8904 12.3171,15.1148 C10.7293,15.5699 9.30689,16.0257 8.153,16.4182 C10.8736,17.6023 13.1114,18.3832 15.3897,18.8963 C18.4476,19.5851 21.6467,19.8068 26.2708,19.8068 C33.0239,19.8068 39.0765,18.7632 43.3909,17.122 C44.1577,16.8303 44.8607,16.5231 45.4974,16.2043 Z" id="Shape"/>
            <polygon id="Path" fill-rule="nonzero" points="52.1876 4.45994 52.1876 1.26267 50.9893 1.26267 50.9893 0.85986 53.8391 0.85986 53.8391 1.26267 52.6408 1.26267 52.6408 4.45994"/>
            <polygon id="Path" fill-rule="nonzero" points="54.1 4.45994 54.1 0.85986 54.7193 0.85986 55.8472 3.85069 55.8573 3.85069 56.9851 0.85986 57.6044 0.85986 57.6044 4.45994 57.1513 4.45994 57.1513 1.49932 57.1412 1.49932 56.0536 4.45994 55.6508 4.45994 54.5633 1.49932 54.5532 1.49932 54.5532 4.45994"/>
        </g>
    </g>
</svg>